<?xml version="1.0" encoding="utf-8"?>
<!-- Generator: Adobe Illustrator 19.0.0, SVG Export Plug-In . SVG Version: 6.00 Build 0)  -->
<svg version="1.1" id="Layer_1" xmlns="http://www.w3.org/2000/svg" xmlns:xlink="http://www.w3.org/1999/xlink" x="0px" y="0px" viewBox="0 0 30 30" style="enable-background:new 0 0 30 30;" xml:space="preserve">
<g id="Edit">
	<path style="fill: #808080" d="M17.8,7.8c-0.6-0.6-1.6-0.6-2.2,0l-8.2,8.2l0,0l-0.2,0.2c0,0-0.8,0.8-2.5,6.4c0,0-0.9,2.9-0.5,3.2
		c0.3,0.3,3.2-0.5,3.2-0.5c5.3-1.7,6.3-2.4,6.4-2.5c0,0,0,0,0,0c0,0,0,0,0,0l0.3-0.2l8.2-8.2c0.6-0.6,0.6-1.6,0-2.2L17.8,7.8z
		 M12.8,21.9c0,0-3.4,1.4-3.6,1.5l-2.6-2.6c0.1-0.2,1.5-3.6,1.5-3.6L8.3,17l4.7,4.7L12.8,21.9z M26.5,7.8l-4.4-4.4
		c-0.6-0.6-1.6-0.6-2.2,0l-1.1,1.1c-0.6,0.6-0.6,1.6,0,2.2l4.4,4.4c0.6,0.6,1.6,0.6,2.2,0l1.1-1.1C27.2,9.4,27.2,8.4,26.5,7.8z"/>
</g>
</svg>
