<?xml version="1.0" encoding="utf-8"?>
<!-- Generator: Adobe Illustrator 19.0.0, SVG Export Plug-In . SVG Version: 6.00 Build 0)  -->
<svg version="1.1" id="Layer_1" xmlns="http://www.w3.org/2000/svg" xmlns:xlink="http://www.w3.org/1999/xlink" x="0px" y="0px"
	 viewBox="-429 263 100 35" style="enable-background:new -429 263 100 35;" xml:space="preserve">
<style type="text/css">
	.st0{fill:#DEDEDE;}
	.st1{fill:#C8FF00;}
</style>
<g id="XMLID_181_">
	<path id="XMLID_155_" class="st0" d="M-422.6,278.8v7.5h2.8v3h-9.2v-3h2.8v-17.8h-2.8v-3h17.3v6.7h-3.6v-3.5h-7.3v7.3h7.8v2.8
		H-422.6z"/>
	<path id="XMLID_196_" class="st0" d="M-404.3,271.6v2.8c1.2-2.1,3-3.2,5.3-3.2c1.3,0,2.4,0.3,3.4,1c1,0.6,1.8,1.6,2.4,2.9
		c0.4-0.9,0.9-1.6,1.5-2.1c1.3-1.1,2.8-1.7,4.5-1.7c1,0,2,0.2,2.9,0.7c0.9,0.4,1.7,1,2.3,1.8c0.5,0.6,0.8,1.3,1,2
		c0.2,0.7,0.3,1.7,0.3,2.8v7.7h2.7v3h-8.4v-3h2.6v-6.9c0-0.9-0.1-1.7-0.2-2.2c-0.2-0.5-0.4-1-0.8-1.5c-0.8-0.9-1.8-1.3-3.1-1.3
		c-0.7,0-1.3,0.1-1.9,0.4c-0.6,0.3-1.1,0.7-1.5,1.2c-0.6,0.8-0.9,1.8-0.9,3.1v7.1h2.6v3h-8.4v-3h2.6v-6.8c0-1.7-0.3-2.9-0.9-3.6
		c-0.8-0.9-1.8-1.4-3.2-1.4c-1.3,0-2.3,0.5-3.1,1.4c-0.8,0.9-1.4,2.1-1.4,3.6v6.9h2.6v3h-8.4v-3h2.6v-11.7h-2.6v-3H-404.3z"/>
	<path id="XMLID_199_" class="st0" d="M-370.1,265.5v20.8h2.6v3h-8.6v-3h2.8v-17.8h-2.6v-3H-370.1z"/>
	<path id="XMLID_201_" class="st1" d="M-348.7,274.6l-7.6,18.2h2.5v3h-8.4v-3h2.5l1.5-3.6l-5.8-14.6h-2.5v-3h8.2v3h-2.2l3.9,10.5
		l4.2-10.5h-2.2v-3h8.1v3H-348.7z"/>
	<path id="XMLID_204_" class="st0" d="M-345.2,282.5h3.6c0.2,1.1,0.6,1.9,1.1,2.6c0.9,1,2,1.5,3.4,1.5c1.3,0,2.4-0.5,3.3-1.4
		c0.9-0.9,1.3-1.9,1.3-3.1c0-1.4-0.5-2.5-1.6-3.4c-0.9-0.8-2-1.1-3.2-1.1c-0.1,0-0.6,0-1.2,0v-2.8c0.3,0,0.7,0,1,0
		c1.3,0,2.3-0.3,3-0.9c0.8-0.7,1.2-1.5,1.2-2.6c0-1-0.3-1.8-1-2.5c-0.7-0.7-1.5-1-2.4-1c-1,0-1.7,0.3-2.4,0.9
		c-0.6,0.6-1,1.3-1.1,2.3h-3.3c0.1-1.5,0.6-2.8,1.5-3.9c0.6-0.7,1.4-1.3,2.3-1.7s1.8-0.4,2.8-0.4c1.9,0,3.4,0.6,4.7,1.8
		c1.2,1.2,1.8,2.6,1.8,4.3c0,1.1-0.3,2.1-0.8,2.9s-1.2,1.5-2.2,2c0.8,0.3,1.4,0.6,1.8,1c0.6,0.5,1.1,1.1,1.5,1.8
		c0.6,1.1,0.9,2.2,0.9,3.4c0,2-0.8,3.8-2.3,5.3s-3.4,2.2-5.6,2.2c-1.7,0-3.2-0.4-4.6-1.2C-343.8,287.3-345,285.2-345.2,282.5z"/>
</g>
</svg>
